<?xml version="1.0" encoding="UTF-8" standalone="no"?>
<!-- Created with Inkscape (http://www.inkscape.org/) -->

<svg
   width="146.2879mm"
   height="155.18234mm"
   viewBox="0 0 146.28791 155.18235"
   version="1.1"
   id="svg1"
   xml:space="preserve"
   xmlns:inkscape="http://www.inkscape.org/namespaces/inkscape"
   xmlns:sodipodi="http://sodipodi.sourceforge.net/DTD/sodipodi-0.dtd"
   xmlns="http://www.w3.org/2000/svg"
   xmlns:svg="http://www.w3.org/2000/svg"><sodipodi:namedview
     id="namedview1"
     pagecolor="#ffffff"
     bordercolor="#000000"
     borderopacity="0.25"
     inkscape:showpageshadow="2"
     inkscape:pageopacity="0.0"
     inkscape:pagecheckerboard="0"
     inkscape:deskcolor="#d1d1d1"
     inkscape:document-units="mm"><inkscape:page
       x="-1.3786642e-13"
       y="0"
       width="146.2879"
       height="155.18236"
       id="page3"
       margin="0"
       bleed="0" /></sodipodi:namedview><defs
     id="defs1" /><g
     id="g1"
     inkscape:groupmode="layer"
     inkscape:label="1"
     transform="matrix(0.26458333,0,0,0.26458334,1.9097308e-5,0)"><path
       id="path1"
       d="M 197.078,57.527 C 130.551,55.703 -12.645,95.137 42.523,168.898 120.516,273.172 80.977,243.746 117.242,335.445 171.203,471.871 317.281,363.371 393.297,285.57 459.434,217.887 362.66,62.074 197.078,57.527 Z"
       style="fill:none;stroke:#000000;stroke-width:0.749999;stroke-linecap:butt;stroke-linejoin:miter;stroke-miterlimit:4;stroke-dasharray:none;stroke-opacity:1"
       transform="scale(1.3333333)" /><path
       id="path2"
       d="M 93.285,250.719 C 107,312.262 407.75,311.941 412.617,246.555"
       style="fill:none;stroke:#000000;stroke-width:0.749999;stroke-linecap:butt;stroke-linejoin:miter;stroke-miterlimit:4;stroke-dasharray:none;stroke-opacity:1"
       transform="scale(1.3333333)" /><path
       id="path3"
       d="m 93.285,250.719 c -5.07,-67.453 310.895,-79.41 319.332,-4.164"
       style="fill:none;stroke:#000000;stroke-width:0.751177;stroke-linecap:butt;stroke-linejoin:miter;stroke-miterlimit:4;stroke-dasharray:4.50708, 1.50236;stroke-dashoffset:0;stroke-opacity:1"
       transform="scale(1.3333333)" /><path
       id="path4"
       d="m 117.273,334.543 -15.199,19.625"
       style="fill:none;stroke:#000000;stroke-width:0.441426;stroke-linecap:butt;stroke-linejoin:miter;stroke-miterlimit:4;stroke-dasharray:none;stroke-opacity:1"
       transform="scale(1.3333333)" /><path
       id="path5"
       d="m 122.629,348.285 -15.195,19.629"
       style="fill:none;stroke:#000000;stroke-width:0.441426;stroke-linecap:butt;stroke-linejoin:miter;stroke-miterlimit:4;stroke-dasharray:none;stroke-opacity:1"
       transform="scale(1.3333333)" /><path
       id="path6"
       d="m 129.059,360.34 -15.2,19.625"
       style="fill:none;stroke:#000000;stroke-width:0.441426;stroke-linecap:butt;stroke-linejoin:miter;stroke-miterlimit:4;stroke-dasharray:none;stroke-opacity:1"
       transform="scale(1.3333333)" /><path
       id="path7"
       d="m 136.828,370.785 -15.199,19.629"
       style="fill:none;stroke:#000000;stroke-width:0.441426;stroke-linecap:butt;stroke-linejoin:miter;stroke-miterlimit:4;stroke-dasharray:none;stroke-opacity:1"
       transform="scale(1.3333333)" /><path
       id="path8"
       d="M 145.129,379.895 129.934,399.52"
       style="fill:none;stroke:#000000;stroke-width:0.441426;stroke-linecap:butt;stroke-linejoin:miter;stroke-miterlimit:4;stroke-dasharray:none;stroke-opacity:1"
       transform="scale(1.3333333)" /><path
       id="path9"
       d="M 154.504,387.395 139.309,407.02"
       style="fill:none;stroke:#000000;stroke-width:0.441426;stroke-linecap:butt;stroke-linejoin:miter;stroke-miterlimit:4;stroke-dasharray:none;stroke-opacity:1"
       transform="scale(1.3333333)" /><path
       id="path10"
       d="m 165.488,393.82 -15.199,19.629"
       style="fill:none;stroke:#000000;stroke-width:0.441426;stroke-linecap:butt;stroke-linejoin:miter;stroke-miterlimit:4;stroke-dasharray:none;stroke-opacity:1"
       transform="scale(1.3333333)" /><path
       id="path11"
       d="M 177.543,398.375 162.344,418"
       style="fill:none;stroke:#000000;stroke-width:0.441426;stroke-linecap:butt;stroke-linejoin:miter;stroke-miterlimit:4;stroke-dasharray:none;stroke-opacity:1"
       transform="scale(1.3333333)" /><path
       id="path12"
       d="m 191.738,399.984 -15.199,19.625"
       style="fill:none;stroke:#000000;stroke-width:0.441426;stroke-linecap:butt;stroke-linejoin:miter;stroke-miterlimit:4;stroke-dasharray:none;stroke-opacity:1"
       transform="scale(1.3333333)" /><path
       id="path13"
       d="m 206.738,400.52 -15.199,19.625"
       style="fill:none;stroke:#000000;stroke-width:0.441426;stroke-linecap:butt;stroke-linejoin:miter;stroke-miterlimit:4;stroke-dasharray:none;stroke-opacity:1"
       transform="scale(1.3333333)" /><path
       id="path14"
       d="M 220.668,398.645 205.469,418.27"
       style="fill:none;stroke:#000000;stroke-width:0.441426;stroke-linecap:butt;stroke-linejoin:miter;stroke-miterlimit:4;stroke-dasharray:none;stroke-opacity:1"
       transform="scale(1.3333333)" /><path
       id="path15"
       d="m 235.668,394.359 -15.199,19.625"
       style="fill:none;stroke:#000000;stroke-width:0.441426;stroke-linecap:butt;stroke-linejoin:miter;stroke-miterlimit:4;stroke-dasharray:none;stroke-opacity:1"
       transform="scale(1.3333333)" /><path
       id="path16"
       d="m 250.934,389.535 -15.2,19.629"
       style="fill:none;stroke:#000000;stroke-width:0.441426;stroke-linecap:butt;stroke-linejoin:miter;stroke-miterlimit:4;stroke-dasharray:none;stroke-opacity:1"
       transform="scale(1.3333333)" /><path
       id="path17"
       d="m 266.203,382.84 -15.199,19.625"
       style="fill:none;stroke:#000000;stroke-width:0.441426;stroke-linecap:butt;stroke-linejoin:miter;stroke-miterlimit:4;stroke-dasharray:none;stroke-opacity:1"
       transform="scale(1.3333333)" /><path
       id="path18"
       d="m 282.207,373.984 -15.199,19.625"
       style="fill:none;stroke:#000000;stroke-width:0.441426;stroke-linecap:butt;stroke-linejoin:miter;stroke-miterlimit:4;stroke-dasharray:none;stroke-opacity:1"
       transform="scale(1.3333333)" /><path
       id="path19"
       d="m 303.344,117.273 c -3.543,19.653 -37.453,29.993 -75.742,23.094 -38.29,-6.898 -66.461,-28.422 -62.918,-48.078 3.543,-19.656 37.453,-29.996 75.742,-23.098 38.289,6.903 66.461,28.426 62.918,48.082 z"
       style="fill:none;stroke:#000000;stroke-width:0.751177;stroke-linecap:butt;stroke-linejoin:miter;stroke-miterlimit:4;stroke-dasharray:none;stroke-opacity:1"
       transform="scale(1.3333333)" /><path
       id="path20"
       d="M 202,45.027 175.297,87.453"
       style="fill:none;stroke:#000000;stroke-width:0.749999;stroke-linecap:butt;stroke-linejoin:miter;stroke-miterlimit:4;stroke-dasharray:none;stroke-opacity:1"
       transform="scale(1.3333333)" /><path
       id="path21"
       d="m 179.289,81.105 -0.941,-4.136 -3.051,10.484 8.129,-7.285 z"
       style="fill:#000000;fill-opacity:1;fill-rule:evenodd;stroke:#000000;stroke-width:0.800001;stroke-linecap:butt;stroke-linejoin:miter;stroke-miterlimit:4;stroke-dasharray:none;stroke-opacity:1"
       transform="scale(1.3333333)" /><path
       id="path22"
       d="m 208.195,68 -26.703,42.426"
       style="fill:none;stroke:#000000;stroke-width:0.749999;stroke-linecap:butt;stroke-linejoin:miter;stroke-miterlimit:4;stroke-dasharray:none;stroke-opacity:1"
       transform="scale(1.3333333)" /><path
       id="path23"
       d="m 185.484,104.078 -0.937,-4.137 -3.055,10.485 8.129,-7.289 z"
       style="fill:#000000;fill-opacity:1;fill-rule:evenodd;stroke:#000000;stroke-width:0.800001;stroke-linecap:butt;stroke-linejoin:miter;stroke-miterlimit:4;stroke-dasharray:none;stroke-opacity:1"
       transform="scale(1.3333333)" /><path
       id="path24"
       d="M 217.098,41.48 190.391,83.906"
       style="fill:none;stroke:#000000;stroke-width:0.749999;stroke-linecap:butt;stroke-linejoin:miter;stroke-miterlimit:4;stroke-dasharray:none;stroke-opacity:1"
       transform="scale(1.3333333)" /><path
       id="path25"
       d="m 194.387,77.562 -0.942,-4.14 -3.054,10.484 8.132,-7.285 z"
       style="fill:#000000;fill-opacity:1;fill-rule:evenodd;stroke:#000000;stroke-width:0.800001;stroke-linecap:butt;stroke-linejoin:miter;stroke-miterlimit:4;stroke-dasharray:none;stroke-opacity:1"
       transform="scale(1.3333333)" /><path
       id="path26"
       d="m 226.758,64.211 -26.707,42.426"
       style="fill:none;stroke:#000000;stroke-width:0.749999;stroke-linecap:butt;stroke-linejoin:miter;stroke-miterlimit:4;stroke-dasharray:none;stroke-opacity:1"
       transform="scale(1.3333333)" /><path
       id="path27"
       d="m 204.047,100.289 -0.942,-4.137 -3.054,10.485 8.133,-7.289 z"
       style="fill:#000000;fill-opacity:1;fill-rule:evenodd;stroke:#000000;stroke-width:0.800001;stroke-linecap:butt;stroke-linejoin:miter;stroke-miterlimit:4;stroke-dasharray:none;stroke-opacity:1"
       transform="scale(1.3333333)" /><path
       id="path28"
       d="m 229.219,79.93 -26.703,42.425"
       style="fill:none;stroke:#000000;stroke-width:0.749999;stroke-linecap:butt;stroke-linejoin:miter;stroke-miterlimit:4;stroke-dasharray:none;stroke-opacity:1"
       transform="scale(1.3333333)" /><path
       id="path29"
       d="m 206.508,116.008 -0.938,-4.137 -3.054,10.484 8.132,-7.285 z"
       style="fill:#000000;fill-opacity:1;fill-rule:evenodd;stroke:#000000;stroke-width:0.800001;stroke-linecap:butt;stroke-linejoin:miter;stroke-miterlimit:4;stroke-dasharray:none;stroke-opacity:1"
       transform="scale(1.3333333)" /><path
       id="path30"
       d="M 233.578,40.723 206.871,83.148"
       style="fill:none;stroke:#000000;stroke-width:0.749999;stroke-linecap:butt;stroke-linejoin:miter;stroke-miterlimit:4;stroke-dasharray:none;stroke-opacity:1"
       transform="scale(1.3333333)" /><path
       id="path31"
       d="m 210.867,76.805 -0.941,-4.137 -3.055,10.48 8.133,-7.285 z"
       style="fill:#000000;fill-opacity:1;fill-rule:evenodd;stroke:#000000;stroke-width:0.800001;stroke-linecap:butt;stroke-linejoin:miter;stroke-miterlimit:4;stroke-dasharray:none;stroke-opacity:1"
       transform="scale(1.3333333)" /><path
       id="path32"
       d="M 256.684,51.332 229.977,93.758"
       style="fill:none;stroke:#000000;stroke-width:0.749999;stroke-linecap:butt;stroke-linejoin:miter;stroke-miterlimit:4;stroke-dasharray:none;stroke-opacity:1"
       transform="scale(1.3333333)" /><path
       id="path33"
       d="m 233.973,87.41 -0.942,-4.137 -3.054,10.485 8.132,-7.289 z"
       style="fill:#000000;fill-opacity:1;fill-rule:evenodd;stroke:#000000;stroke-width:0.800001;stroke-linecap:butt;stroke-linejoin:miter;stroke-miterlimit:4;stroke-dasharray:none;stroke-opacity:1"
       transform="scale(1.3333333)" /><path
       id="path34"
       d="m 247.973,80.879 -26.707,42.426"
       style="fill:none;stroke:#000000;stroke-width:0.749999;stroke-linecap:butt;stroke-linejoin:miter;stroke-miterlimit:4;stroke-dasharray:none;stroke-opacity:1"
       transform="scale(1.3333333)" /><path
       id="path35"
       d="m 225.262,116.957 -0.942,-4.137 -3.054,10.485 8.132,-7.289 z"
       style="fill:#000000;fill-opacity:1;fill-rule:evenodd;stroke:#000000;stroke-width:0.800001;stroke-linecap:butt;stroke-linejoin:miter;stroke-miterlimit:4;stroke-dasharray:none;stroke-opacity:1"
       transform="scale(1.3333333)" /><path
       id="path36"
       d="m 270.32,68.188 -26.707,42.425"
       style="fill:none;stroke:#000000;stroke-width:0.749999;stroke-linecap:butt;stroke-linejoin:miter;stroke-miterlimit:4;stroke-dasharray:none;stroke-opacity:1"
       transform="scale(1.3333333)" /><path
       id="path37"
       d="m 247.609,104.266 -0.941,-4.137 -3.055,10.484 8.133,-7.289 z"
       style="fill:#000000;fill-opacity:1;fill-rule:evenodd;stroke:#000000;stroke-width:0.800001;stroke-linecap:butt;stroke-linejoin:miter;stroke-miterlimit:4;stroke-dasharray:none;stroke-opacity:1"
       transform="scale(1.3333333)" /><path
       id="path38"
       d="m 267.289,89.211 -26.703,42.426"
       style="fill:none;stroke:#000000;stroke-width:0.749999;stroke-linecap:butt;stroke-linejoin:miter;stroke-miterlimit:4;stroke-dasharray:none;stroke-opacity:1"
       transform="scale(1.3333333)" /><path
       id="path39"
       d="m 244.578,125.289 -0.937,-4.137 -3.055,10.485 8.129,-7.285 z"
       style="fill:#000000;fill-opacity:1;fill-rule:evenodd;stroke:#000000;stroke-width:0.800001;stroke-linecap:butt;stroke-linejoin:miter;stroke-miterlimit:4;stroke-dasharray:none;stroke-opacity:1"
       transform="scale(1.3333333)" /><path
       id="path40"
       d="m 296.27,61.367 -26.708,42.43"
       style="fill:none;stroke:#000000;stroke-width:0.749999;stroke-linecap:butt;stroke-linejoin:miter;stroke-miterlimit:4;stroke-dasharray:none;stroke-opacity:1"
       transform="scale(1.3333333)" /><path
       id="path41"
       d="m 273.559,97.449 -0.942,-4.137 -3.055,10.485 8.133,-7.289 z"
       style="fill:#000000;fill-opacity:1;fill-rule:evenodd;stroke:#000000;stroke-width:0.800001;stroke-linecap:butt;stroke-linejoin:miter;stroke-miterlimit:4;stroke-dasharray:none;stroke-opacity:1"
       transform="scale(1.3333333)" /><path
       id="path42"
       d="m 293.809,82.016 -26.707,42.425"
       style="fill:none;stroke:#000000;stroke-width:0.749999;stroke-linecap:butt;stroke-linejoin:miter;stroke-miterlimit:4;stroke-dasharray:none;stroke-opacity:1"
       transform="scale(1.3333333)" /><path
       id="path43"
       d="m 271.098,118.094 -0.942,-4.137 -3.054,10.484 8.132,-7.289 z"
       style="fill:#000000;fill-opacity:1;fill-rule:evenodd;stroke:#000000;stroke-width:0.800001;stroke-linecap:butt;stroke-linejoin:miter;stroke-miterlimit:4;stroke-dasharray:none;stroke-opacity:1"
       transform="scale(1.3333333)" /><path
       id="path44"
       d="m 303.465,90.727 -26.703,42.425"
       style="fill:none;stroke:#000000;stroke-width:0.749999;stroke-linecap:butt;stroke-linejoin:miter;stroke-miterlimit:4;stroke-dasharray:none;stroke-opacity:1"
       transform="scale(1.3333333)" /><path
       id="path45"
       d="m 280.754,126.805 -0.938,-4.137 -3.054,10.484 8.133,-7.289 z"
       style="fill:#000000;fill-opacity:1;fill-rule:evenodd;stroke:#000000;stroke-width:0.800001;stroke-linecap:butt;stroke-linejoin:miter;stroke-miterlimit:4;stroke-dasharray:none;stroke-opacity:1"
       transform="scale(1.3333333)" /><path
       id="path46"
       d="m 323.164,76.332 -26.707,42.426"
       style="fill:none;stroke:#000000;stroke-width:0.749999;stroke-linecap:butt;stroke-linejoin:miter;stroke-miterlimit:4;stroke-dasharray:none;stroke-opacity:1"
       transform="scale(1.3333333)" /><path
       id="path47"
       d="m 300.453,112.41 -0.941,-4.137 -3.055,10.485 8.133,-7.289 z"
       style="fill:#000000;fill-opacity:1;fill-rule:evenodd;stroke:#000000;stroke-width:0.800001;stroke-linecap:butt;stroke-linejoin:miter;stroke-miterlimit:4;stroke-dasharray:none;stroke-opacity:1"
       transform="scale(1.3333333)" /><path
       id="path48"
       d="M 277.141,43.375 250.434,85.801"
       style="fill:none;stroke:#000000;stroke-width:0.749999;stroke-linecap:butt;stroke-linejoin:miter;stroke-miterlimit:4;stroke-dasharray:none;stroke-opacity:1"
       transform="scale(1.3333333)" /><path
       id="path49"
       d="m 254.43,79.453 -0.942,-4.137 -3.054,10.485 8.132,-7.285 z"
       style="fill:#000000;fill-opacity:1;fill-rule:evenodd;stroke:#000000;stroke-width:0.800001;stroke-linecap:butt;stroke-linejoin:miter;stroke-miterlimit:4;stroke-dasharray:none;stroke-opacity:1"
       transform="scale(1.3333333)" /><path
       id="path50"
       d="m 254.789,32.957 -26.707,42.43"
       style="fill:none;stroke:#000000;stroke-width:0.749999;stroke-linecap:butt;stroke-linejoin:miter;stroke-miterlimit:4;stroke-dasharray:none;stroke-opacity:1"
       transform="scale(1.3333333)" /><path
       id="path51"
       d="m 232.078,69.039 -0.941,-4.137 -3.055,10.485 8.133,-7.289 z"
       style="fill:#000000;fill-opacity:1;fill-rule:evenodd;stroke:#000000;stroke-width:0.800001;stroke-linecap:butt;stroke-linejoin:miter;stroke-miterlimit:4;stroke-dasharray:none;stroke-opacity:1"
       transform="scale(1.3333333)" /><path
       id="path52"
       d="m 100.859,124.957 -0.757,52.273"
       style="fill:none;stroke:#000000;stroke-width:0.749999;stroke-linecap:butt;stroke-linejoin:miter;stroke-miterlimit:4;stroke-dasharray:none;stroke-opacity:1"
       transform="scale(1.3333333)" /><path
       id="path53"
       d="m 100.211,169.734 -2.957,-3.043 2.848,10.539 3.152,-10.453 z"
       style="fill:#000000;fill-opacity:1;fill-rule:evenodd;stroke:#000000;stroke-width:0.800001;stroke-linecap:butt;stroke-linejoin:miter;stroke-miterlimit:4;stroke-dasharray:none;stroke-opacity:1"
       transform="scale(1.3333333)" /><path
       id="path54"
       d="m 134.023,147.34 -0.757,52.273"
       style="fill:none;stroke:#000000;stroke-width:0.749999;stroke-linecap:butt;stroke-linejoin:miter;stroke-miterlimit:4;stroke-dasharray:none;stroke-opacity:1"
       transform="scale(1.3333333)" /><path
       id="path55"
       d="m 133.375,192.113 -2.957,-3.043 2.848,10.543 3.152,-10.453 z"
       style="fill:#000000;fill-opacity:1;fill-rule:evenodd;stroke:#000000;stroke-width:0.800001;stroke-linecap:butt;stroke-linejoin:miter;stroke-miterlimit:4;stroke-dasharray:none;stroke-opacity:1"
       transform="scale(1.3333333)" /><path
       id="path56"
       d="m 197.66,151.125 -0.754,52.277"
       style="fill:none;stroke:#000000;stroke-width:0.749999;stroke-linecap:butt;stroke-linejoin:miter;stroke-miterlimit:4;stroke-dasharray:none;stroke-opacity:1"
       transform="scale(1.3333333)" /><path
       id="path57"
       d="m 197.012,195.902 -2.953,-3.043 2.847,10.543 3.149,-10.457 z"
       style="fill:#000000;fill-opacity:1;fill-rule:evenodd;stroke:#000000;stroke-width:0.800001;stroke-linecap:butt;stroke-linejoin:miter;stroke-miterlimit:4;stroke-dasharray:none;stroke-opacity:1"
       transform="scale(1.3333333)" /><path
       id="path58"
       d="m 168.871,200.371 -0.758,52.277"
       style="fill:none;stroke:#000000;stroke-width:0.749999;stroke-linecap:butt;stroke-linejoin:miter;stroke-miterlimit:4;stroke-dasharray:none;stroke-opacity:1"
       transform="scale(1.3333333)" /><path
       id="path59"
       d="m 168.223,245.148 -2.957,-3.043 2.847,10.543 3.153,-10.457 z"
       style="fill:#000000;fill-opacity:1;fill-rule:evenodd;stroke:#000000;stroke-width:0.800001;stroke-linecap:butt;stroke-linejoin:miter;stroke-miterlimit:4;stroke-dasharray:none;stroke-opacity:1"
       transform="scale(1.3333333)" /><path
       id="path60"
       d="m 220.926,217.605 -0.758,52.278"
       style="fill:none;stroke:#000000;stroke-width:0.749999;stroke-linecap:butt;stroke-linejoin:miter;stroke-miterlimit:4;stroke-dasharray:none;stroke-opacity:1"
       transform="scale(1.3333333)" /><path
       id="path61"
       d="m 220.277,262.383 -2.957,-3.043 2.848,10.543 3.152,-10.457 z"
       style="fill:#000000;fill-opacity:1;fill-rule:evenodd;stroke:#000000;stroke-width:0.800001;stroke-linecap:butt;stroke-linejoin:miter;stroke-miterlimit:4;stroke-dasharray:none;stroke-opacity:1"
       transform="scale(1.3333333)" /><path
       id="path62"
       d="m 278.023,159.316 -0.757,52.274"
       style="fill:none;stroke:#000000;stroke-width:0.749999;stroke-linecap:butt;stroke-linejoin:miter;stroke-miterlimit:4;stroke-dasharray:none;stroke-opacity:1"
       transform="scale(1.3333333)" /><path
       id="path63"
       d="m 277.375,204.09 -2.957,-3.043 2.848,10.543 3.152,-10.457 z"
       style="fill:#000000;fill-opacity:1;fill-rule:evenodd;stroke:#000000;stroke-width:0.800001;stroke-linecap:butt;stroke-linejoin:miter;stroke-miterlimit:4;stroke-dasharray:none;stroke-opacity:1"
       transform="scale(1.3333333)" /><path
       id="path64"
       d="m 296.152,186.734 -0.757,52.278"
       style="fill:none;stroke:#000000;stroke-width:0.749999;stroke-linecap:butt;stroke-linejoin:miter;stroke-miterlimit:4;stroke-dasharray:none;stroke-opacity:1"
       transform="scale(1.3333333)" /><path
       id="path65"
       d="m 295.504,231.512 -2.957,-3.043 2.848,10.543 3.152,-10.457 z"
       style="fill:#000000;fill-opacity:1;fill-rule:evenodd;stroke:#000000;stroke-width:0.800001;stroke-linecap:butt;stroke-linejoin:miter;stroke-miterlimit:4;stroke-dasharray:none;stroke-opacity:1"
       transform="scale(1.3333333)" /><path
       id="path66"
       d="m 310.547,219.312 -0.758,52.274"
       style="fill:none;stroke:#000000;stroke-width:0.749999;stroke-linecap:butt;stroke-linejoin:miter;stroke-miterlimit:4;stroke-dasharray:none;stroke-opacity:1"
       transform="scale(1.3333333)" /><path
       id="path67"
       d="m 309.898,264.09 -2.957,-3.043 2.848,10.539 3.152,-10.453 z"
       style="fill:#000000;fill-opacity:1;fill-rule:evenodd;stroke:#000000;stroke-width:0.800001;stroke-linecap:butt;stroke-linejoin:miter;stroke-miterlimit:4;stroke-dasharray:none;stroke-opacity:1"
       transform="scale(1.3333333)" /><path
       id="path68"
       d="m 332.516,176.129 -0.758,52.273"
       style="fill:none;stroke:#000000;stroke-width:0.749999;stroke-linecap:butt;stroke-linejoin:miter;stroke-miterlimit:4;stroke-dasharray:none;stroke-opacity:1"
       transform="scale(1.3333333)" /><path
       id="path69"
       d="m 331.867,220.902 -2.953,-3.043 2.844,10.543 3.152,-10.453 z"
       style="fill:#000000;fill-opacity:1;fill-rule:evenodd;stroke:#000000;stroke-width:0.800001;stroke-linecap:butt;stroke-linejoin:miter;stroke-miterlimit:4;stroke-dasharray:none;stroke-opacity:1"
       transform="scale(1.3333333)" /><path
       id="path70"
       d="m 351.457,217.797 -0.758,52.273"
       style="fill:none;stroke:#000000;stroke-width:0.749999;stroke-linecap:butt;stroke-linejoin:miter;stroke-miterlimit:4;stroke-dasharray:none;stroke-opacity:1"
       transform="scale(1.3333333)" /><path
       id="path71"
       d="m 350.809,262.574 -2.957,-3.043 2.847,10.539 3.153,-10.453 z"
       style="fill:#000000;fill-opacity:1;fill-rule:evenodd;stroke:#000000;stroke-width:0.800001;stroke-linecap:butt;stroke-linejoin:miter;stroke-miterlimit:4;stroke-dasharray:none;stroke-opacity:1"
       transform="scale(1.3333333)" /><path
       id="path72"
       d="m 374.188,182.945 -0.758,52.278"
       style="fill:none;stroke:#000000;stroke-width:0.749999;stroke-linecap:butt;stroke-linejoin:miter;stroke-miterlimit:4;stroke-dasharray:none;stroke-opacity:1"
       transform="scale(1.3333333)" /><path
       id="path73"
       d="m 373.539,227.723 -2.957,-3.043 2.848,10.543 3.152,-10.457 z"
       style="fill:#000000;fill-opacity:1;fill-rule:evenodd;stroke:#000000;stroke-width:0.800001;stroke-linecap:butt;stroke-linejoin:miter;stroke-miterlimit:4;stroke-dasharray:none;stroke-opacity:1"
       transform="scale(1.3333333)" /><path
       id="path74"
       d="m 152.203,274.617 -0.754,52.278"
       style="fill:none;stroke:#000000;stroke-width:0.749999;stroke-linecap:butt;stroke-linejoin:miter;stroke-miterlimit:4;stroke-dasharray:none;stroke-opacity:1"
       transform="scale(1.3333333)" /><path
       id="path75"
       d="m 151.555,319.395 -2.953,-3.043 2.847,10.543 3.149,-10.457 z"
       style="fill:#000000;fill-opacity:1;fill-rule:evenodd;stroke:#000000;stroke-width:0.800001;stroke-linecap:butt;stroke-linejoin:miter;stroke-miterlimit:4;stroke-dasharray:none;stroke-opacity:1"
       transform="scale(1.3333333)" /><path
       id="path76"
       d="m 206.754,277.648 -0.758,52.274"
       style="fill:none;stroke:#000000;stroke-width:0.749999;stroke-linecap:butt;stroke-linejoin:miter;stroke-miterlimit:4;stroke-dasharray:none;stroke-opacity:1"
       transform="scale(1.3333333)" /><path
       id="path77"
       d="m 206.105,322.426 -2.957,-3.043 2.848,10.539 3.152,-10.453 z"
       style="fill:#000000;fill-opacity:1;fill-rule:evenodd;stroke:#000000;stroke-width:0.800001;stroke-linecap:butt;stroke-linejoin:miter;stroke-miterlimit:4;stroke-dasharray:none;stroke-opacity:1"
       transform="scale(1.3333333)" /><path
       id="path78"
       d="m 237.816,309.469 -0.757,52.273"
       style="fill:none;stroke:#000000;stroke-width:0.749999;stroke-linecap:butt;stroke-linejoin:miter;stroke-miterlimit:4;stroke-dasharray:none;stroke-opacity:1"
       transform="scale(1.3333333)" /><path
       id="path79"
       d="m 237.168,354.246 -2.957,-3.047 2.848,10.543 3.152,-10.453 z"
       style="fill:#000000;fill-opacity:1;fill-rule:evenodd;stroke:#000000;stroke-width:0.800001;stroke-linecap:butt;stroke-linejoin:miter;stroke-miterlimit:4;stroke-dasharray:none;stroke-opacity:1"
       transform="scale(1.3333333)" /><path
       id="path80"
       d="m 284.031,279.164 -0.758,52.274"
       style="fill:none;stroke:#000000;stroke-width:0.749999;stroke-linecap:butt;stroke-linejoin:miter;stroke-miterlimit:4;stroke-dasharray:none;stroke-opacity:1"
       transform="scale(1.3333333)" /><path
       id="path81"
       d="m 283.383,323.941 -2.957,-3.043 2.847,10.54 3.153,-10.454 z"
       style="fill:#000000;fill-opacity:1;fill-rule:evenodd;stroke:#000000;stroke-width:0.800001;stroke-linecap:butt;stroke-linejoin:miter;stroke-miterlimit:4;stroke-dasharray:none;stroke-opacity:1"
       transform="scale(1.3333333)" /><path
       id="path82"
       d="m 179.48,316.285 -0.757,52.277"
       style="fill:none;stroke:#000000;stroke-width:0.749999;stroke-linecap:butt;stroke-linejoin:miter;stroke-miterlimit:4;stroke-dasharray:none;stroke-opacity:1"
       transform="scale(1.3333333)" /><path
       id="path83"
       d="m 178.832,361.062 -2.957,-3.042 2.848,10.542 3.152,-10.457 z"
       style="fill:#000000;fill-opacity:1;fill-rule:evenodd;stroke:#000000;stroke-width:0.800001;stroke-linecap:butt;stroke-linejoin:miter;stroke-miterlimit:4;stroke-dasharray:none;stroke-opacity:1"
       transform="scale(1.3333333)" /><path
       id="path84"
       d="m 330.246,277.648 -0.758,52.274"
       style="fill:none;stroke:#000000;stroke-width:0.749999;stroke-linecap:butt;stroke-linejoin:miter;stroke-miterlimit:4;stroke-dasharray:none;stroke-opacity:1"
       transform="scale(1.3333333)" /><path
       id="path85"
       d="m 329.594,322.426 -2.953,-3.043 2.847,10.539 3.153,-10.453 z"
       style="fill:#000000;fill-opacity:1;fill-rule:evenodd;stroke:#000000;stroke-width:0.800001;stroke-linecap:butt;stroke-linejoin:miter;stroke-miterlimit:4;stroke-dasharray:none;stroke-opacity:1"
       transform="scale(1.3333333)" /><path
       id="path86"
       d="m 115.84,199.613 -0.758,52.278"
       style="fill:none;stroke:#000000;stroke-width:0.749999;stroke-linecap:butt;stroke-linejoin:miter;stroke-miterlimit:4;stroke-dasharray:none;stroke-opacity:1"
       transform="scale(1.3333333)" /><path
       id="path87"
       d="m 115.191,244.391 -2.957,-3.043 2.848,10.543 3.152,-10.457 z"
       style="fill:#000000;fill-opacity:1;fill-rule:evenodd;stroke:#000000;stroke-width:0.800001;stroke-linecap:butt;stroke-linejoin:miter;stroke-miterlimit:4;stroke-dasharray:none;stroke-opacity:1"
       transform="scale(1.3333333)" /><path
       id="path88"
       d="m 349.184,129.156 -0.758,52.274"
       style="fill:none;stroke:#000000;stroke-width:0.749999;stroke-linecap:butt;stroke-linejoin:miter;stroke-miterlimit:4;stroke-dasharray:none;stroke-opacity:1"
       transform="scale(1.3333333)" /><path
       id="path89"
       d="m 348.535,173.934 -2.957,-3.043 2.848,10.539 3.152,-10.453 z"
       style="fill:#000000;fill-opacity:1;fill-rule:evenodd;stroke:#000000;stroke-width:0.800001;stroke-linecap:butt;stroke-linejoin:miter;stroke-miterlimit:4;stroke-dasharray:none;stroke-opacity:1"
       transform="scale(1.3333333)" /><path
       id="path90"
       d="m 71.141,114.004 -0.758,52.273"
       style="fill:none;stroke:#000000;stroke-width:0.749999;stroke-linecap:butt;stroke-linejoin:miter;stroke-miterlimit:4;stroke-dasharray:none;stroke-opacity:1"
       transform="scale(1.3333333)" /><path
       id="path91"
       d="m 70.492,158.781 -2.957,-3.043 2.848,10.539 3.152,-10.453 z"
       style="fill:#000000;fill-opacity:1;fill-rule:evenodd;stroke:#000000;stroke-width:0.800001;stroke-linecap:butt;stroke-linejoin:miter;stroke-miterlimit:4;stroke-dasharray:none;stroke-opacity:1"
       transform="scale(1.3333333)" /><path
       id="path92"
       d="m 26.82,223.629 h -1.062 c -0.211,1.105 -0.383,2.094 -0.758,3.098 -0.211,0.679 -0.34,1.027 -2.797,1.027 h -3.394 c 0.546,-2.383 1.863,-4.414 3.777,-7.203 1.988,-3.02 3.715,-5.946 3.715,-9.285 0,-5.895 -5.703,-10.633 -12.875,-10.633 -7.278,0 -12.906,4.832 -12.906,10.633 0,3.339 1.726,6.265 3.714,9.285 1.864,2.789 3.215,4.82 3.778,7.203 H 4.617 c -2.457,0 -2.586,-0.348 -2.797,-0.988 -0.332,-0.969 -0.547,-2.075 -0.758,-3.137 H 0 L 1.402,230.5 H 8.18 c 0.937,0 1.054,0 1.054,-0.891 0,-2.961 -1.3,-6.695 -2.285,-9.406 -0.894,-2.457 -2.078,-5.808 -2.078,-8.98 0,-6.778 4.672,-9.661 8.524,-9.661 4.062,0 8.554,3.051 8.554,9.661 0,3.172 -1.14,6.402 -2.383,9.871 -0.621,1.777 -1.98,5.597 -1.98,8.515 0,0.891 0.129,0.891 1.098,0.891 h 6.734 z"
       style="fill:#000000;fill-opacity:1;fill-rule:evenodd;stroke:none"
       transform="scale(1.3333333)" /><path
       id="path93"
       d="m 78.281,412.746 -0.039,-0.25 -0.051,-0.246 -0.062,-0.238 -0.067,-0.239 -0.078,-0.238 -0.074,-0.226 -0.094,-0.231 -0.101,-0.223 -0.106,-0.218 -0.117,-0.215 -0.117,-0.211 -0.129,-0.203 -0.144,-0.196 -0.145,-0.187 -0.152,-0.187 -0.172,-0.18 -0.168,-0.172 -0.18,-0.152 -0.195,-0.153 -0.195,-0.144 -0.207,-0.137 -0.219,-0.125 -0.223,-0.113 -0.238,-0.102 -0.238,-0.094 -0.254,-0.086 -0.254,-0.066 -0.274,-0.059 -0.273,-0.043 -0.289,-0.035 -0.297,-0.023 h -0.305 v 0.926 c 4.625,0 4.703,4.746 4.703,5.593 0,3.047 -2.715,12.579 -9.238,12.579 -4.66,0 -4.66,-4.372 -4.66,-4.778 0,-1.156 1.066,-7.086 2.801,-9.617 1.691,-2.426 3.765,-3.777 6.394,-3.777 v -0.926 c -2.594,0 -5.34,0.672 -8.64,3.98 -3.52,3.512 -3.809,7.457 -3.809,8.774 0,2.613 1.859,7.527 7.789,7.527 10.086,0 14.488,-14.226 14.488,-20.281 0,-6.746 -3.945,-10.981 -9.148,-10.981 -6.141,0 -8.098,5.504 -8.098,6.692 0,0.59 0.332,1.48 1.61,1.48 1.394,0 2.289,-1.265 2.289,-2.242 0,-1.48 -1.321,-1.48 -1.993,-1.48 1.872,-3.129 4.876,-3.387 6.106,-3.387 3.086,0 6.062,2.203 6.062,7.664 0,1.648 -0.261,3.816 -1.156,7.246 z"
       style="fill:#000000;fill-opacity:1;fill-rule:evenodd;stroke:none"
       transform="scale(1.3333333)" /><path
       id="path94"
       d="m 112.152,420.238 h -1.062 c -0.211,1.106 -0.383,2.09 -0.754,3.094 -0.215,0.68 -0.34,1.027 -2.801,1.027 h -3.39 c 0.543,-2.379 1.863,-4.41 3.773,-7.203 1.992,-3.015 3.719,-5.941 3.719,-9.285 0,-5.894 -5.707,-10.629 -12.875,-10.629 -7.282,0 -12.91,4.828 -12.91,10.629 0,3.344 1.726,6.27 3.714,9.285 1.864,2.793 3.215,4.824 3.778,7.203 h -3.395 c -2.457,0 -2.582,-0.347 -2.797,-0.984 -0.332,-0.969 -0.543,-2.074 -0.757,-3.137 h -1.063 l 1.402,6.871 h 6.778 c 0.937,0 1.054,0 1.054,-0.894 0,-2.961 -1.3,-6.692 -2.285,-9.406 -0.894,-2.457 -2.074,-5.809 -2.074,-8.981 0,-6.777 4.668,-9.66 8.52,-9.66 4.066,0 8.554,3.055 8.554,9.66 0,3.172 -1.14,6.406 -2.383,9.875 -0.617,1.777 -1.98,5.594 -1.98,8.512 0,0.894 0.129,0.894 1.098,0.894 h 6.734 z"
       style="fill:#000000;fill-opacity:1;fill-rule:evenodd;stroke:none"
       transform="scale(1.3333333)" /><path
       id="path95"
       d="M 167.223,15.969 167.18,15.723 167.129,15.477 167.07,15.238 167,15 l -0.074,-0.238 -0.078,-0.231 -0.094,-0.226 -0.203,-0.446 -0.117,-0.211 -0.122,-0.21 -0.128,-0.208 -0.145,-0.195 -0.144,-0.187 -0.153,-0.188 -0.168,-0.176 -0.172,-0.172 -0.179,-0.152 -0.196,-0.152 -0.195,-0.145 -0.203,-0.136 -0.223,-0.129 -0.218,-0.11 -0.239,-0.101 -0.238,-0.094 -0.254,-0.086 -0.258,-0.066 -0.269,-0.059 -0.274,-0.043 -0.289,-0.035 -0.297,-0.027 h -0.308 v 0.929 c 4.629,0 4.703,4.742 4.703,5.594 0,3.047 -2.711,12.578 -9.235,12.578 -4.66,0 -4.66,-4.371 -4.66,-4.777 0,-1.16 1.063,-7.086 2.797,-9.621 1.692,-2.422 3.77,-3.774 6.395,-3.774 v -0.929 c -2.594,0 -5.34,0.671 -8.637,3.98 -3.523,3.512 -3.813,7.461 -3.813,8.777 0,2.61 1.864,7.528 7.79,7.528 10.086,0 14.492,-14.231 14.492,-20.285 C 171.594,4.234 167.648,0 162.445,0 c -6.14,0 -8.097,5.5 -8.097,6.691 0,0.586 0.332,1.481 1.605,1.481 1.395,0 2.289,-1.266 2.289,-2.246 0,-1.481 -1.316,-1.481 -1.988,-1.481 1.871,-3.129 4.871,-3.383 6.105,-3.383 3.086,0 6.063,2.204 6.063,7.665 0,1.648 -0.266,3.816 -1.156,7.242 z"
       style="fill:#000000;fill-opacity:1;fill-rule:evenodd;stroke:none"
       transform="scale(1.3333333)" /><path
       id="path96"
       d="m 201.094,23.461 h -1.063 c -0.215,1.105 -0.383,2.094 -0.758,3.098 -0.211,0.679 -0.339,1.027 -2.796,1.027 h -3.395 c 0.547,-2.379 1.863,-4.414 3.777,-7.203 1.989,-3.02 3.715,-5.945 3.715,-9.285 0,-5.895 -5.707,-10.629 -12.875,-10.629 -7.277,0 -12.906,4.828 -12.906,10.629 0,3.34 1.723,6.265 3.715,9.285 1.863,2.789 3.215,4.824 3.773,7.203 h -3.39 c -2.457,0 -2.586,-0.348 -2.797,-0.984 -0.332,-0.973 -0.547,-2.079 -0.758,-3.141 h -1.063 l 1.403,6.871 h 6.777 c 0.934,0 1.055,0 1.055,-0.891 0,-2.961 -1.301,-6.695 -2.289,-9.406 -0.891,-2.457 -2.074,-5.808 -2.074,-8.98 0,-6.778 4.667,-9.66 8.523,-9.66 4.062,0 8.555,3.05 8.555,9.66 0,3.172 -1.141,6.402 -2.383,9.875 -0.621,1.777 -1.981,5.593 -1.981,8.511 0,0.891 0.125,0.891 1.098,0.891 h 6.734 z"
       style="fill:#000000;fill-opacity:1;fill-rule:evenodd;stroke:none"
       transform="scale(1.3333333)" /><path
       id="path97"
       d="m 249.348,228.145 h 4.957 c 0.816,0 1.57,0 1.57,-1.227 0,-0.766 -0.723,-0.766 -1.434,-0.766 h -4.753 l 1.402,-7.668 c 0.117,-0.757 0.117,-0.851 0.543,-1.226 0.562,-0.52 1.031,-0.52 1.242,-0.52 0.578,0 0.969,0.094 1.473,0.309 -1.012,0.508 -1.778,1.605 -1.778,2.754 0,1.277 1.02,1.949 2.067,1.949 1.742,0 3.058,-1.523 3.058,-3.129 0,-2.172 -2.211,-3.394 -4.82,-3.394 -2,0 -4.379,0.8 -5.852,3.179 -0.984,1.567 -1.23,3.215 -2.046,7.746 h -4.145 c -0.805,0 -1.527,0 -1.527,1.235 0,0.758 0.722,0.758 1.394,0.758 h 3.91 l -3.23,18.043 c -0.078,0.382 -0.547,3.054 -0.758,3.66 -0.078,0.211 -0.758,2.148 -2.117,2.148 -0.809,0 -1.141,-0.117 -1.445,-0.254 1.062,-0.5 1.871,-1.605 1.871,-2.789 0,-1.277 -1.024,-1.957 -2.086,-1.957 -1.727,0 -3.043,1.531 -3.043,3.141 0,2.285 2.406,3.383 4.617,3.383 3.172,0 5.375,-3.129 5.723,-3.672 1.82,-2.809 2.789,-8.192 2.925,-8.907 z"
       style="fill:#000000;fill-opacity:1;fill-rule:evenodd;stroke:none"
       transform="scale(1.3333333)" /><path
       id="path99"
       d="m 299.711,18.312 h 2.754 c 2.555,0 3.265,0.426 3.265,1.821 0,0.469 -0.125,1.277 -0.246,1.785 -0.093,0.309 -0.136,0.52 -0.136,0.598 0,0.636 0.562,0.757 0.972,0.757 0.805,0 0.848,-0.246 1.063,-1.011 l 2.379,-9.442 c 0.156,-0.562 0.156,-0.636 0.156,-0.679 0,-0.774 -0.836,-0.774 -1.004,-0.774 -0.816,0 -0.894,0.305 -1.105,1.106 -0.852,3.23 -2.172,3.851 -5.215,3.851 h -2.371 L 303.02,5.016 c 0.55,-0.078 1.011,-0.078 1.437,-0.078 h 5.051 c 4.82,0 6.308,1.226 6.308,4.957 0,1.011 -0.168,2.289 -0.168,2.457 0,0.8 0.809,0.8 1.012,0.8 0.883,0 0.945,-0.425 1.02,-1.183 l 0.758,-7.594 0.05,-0.672 c 0,-0.754 -0.73,-0.754 -1.402,-0.754 h -22.793 c -0.891,0 -0.926,0.031 -1.137,0.211 -0.308,0.211 -0.394,0.969 -0.394,1.004 0,0.774 0.605,0.774 1.746,0.774 0.89,0 1.683,0.042 2.574,0.078 l -5.969,23.894 c -0.168,0.672 -0.211,0.731 -0.976,0.809 -0.723,0.043 -1.575,0.043 -2.246,0.043 -1.09,0 -1.184,0 -1.36,0.093 -0.504,0.29 -0.504,0.969 -0.504,1.137 0,0.043 0,0.758 0.93,0.758 1.063,0 2.168,-0.074 3.231,-0.074 1.14,0 2.285,-0.063 3.425,-0.063 1.278,0 2.543,0.063 3.821,0.063 1.214,0 2.457,0.074 3.636,0.074 0.504,0 1.278,0 1.278,-1.223 0,-0.765 -0.723,-0.765 -1.41,-0.765 h -1.395 c -1.609,0 -2.246,-0.086 -2.672,-0.18 z"
       style="fill:#000000;fill-opacity:1;fill-rule:evenodd;stroke:none"
       transform="scale(1.3333333)" /><path
       id="path101"
       d="m 284.418,418.836 c 0.34,-1.211 0.809,-3.297 0.809,-3.566 0,-0.946 -0.672,-1.887 -2.02,-1.887 -0.672,0 -2.223,0.336 -2.828,2.289 -0.137,0.539 -2.09,8.351 -2.426,9.766 -0.269,1.011 -0.539,2.222 -0.672,3.031 -0.742,1.011 -2.426,2.761 -4.648,2.761 -2.492,0 -2.559,-2.156 -2.559,-3.097 0,-2.629 1.348,-5.996 2.559,-9.094 0.406,-1.144 0.539,-1.414 0.539,-2.156 0,-2.492 -2.492,-3.836 -4.848,-3.836 -4.582,0 -6.734,5.789 -6.734,6.668 0,0.605 0.672,0.605 1.074,0.605 0.473,0 0.809,0 0.945,-0.539 1.414,-4.781 3.77,-5.187 4.446,-5.187 0.336,0 0.738,0 0.738,0.875 0,1.011 -0.539,2.222 -0.672,2.695 -1.82,4.512 -2.625,6.938 -2.625,9.024 0,4.917 4.309,5.589 6.801,5.589 1.277,0 3.164,-0.132 5.453,-2.355 1.418,2.086 3.906,2.355 4.918,2.355 1.617,0 2.828,-0.875 3.773,-2.422 1.008,-1.753 1.614,-4.043 1.614,-4.246 0,-0.605 -0.672,-0.605 -1.075,-0.605 -0.472,0 -0.609,0 -0.808,0.203 -0.137,0.066 -0.137,0.133 -0.34,1.211 -0.875,3.367 -1.816,4.312 -2.961,4.312 -0.605,0 -0.945,-0.406 -0.945,-1.55 0,-0.739 0.136,-1.481 0.539,-3.164 0.34,-1.211 0.742,-2.895 1.012,-3.84 z"
       style="fill:#000000;fill-opacity:1;fill-rule:nonzero;stroke:none"
       transform="scale(1.3333333)" /><path
       id="path102"
       d="m 306.66,418.945 c 0,-0.066 0.067,-0.468 0.067,-0.468 0,-0.204 -0.067,-0.473 -0.469,-0.473 -0.61,0 -3.098,0.269 -3.84,0.336 -0.203,0 -0.676,0.066 -0.676,0.672 0,0.406 0.473,0.406 0.809,0.406 1.414,0 1.414,0.27 1.414,0.473 0,0.199 0,0.402 -0.067,0.671 l -1.75,6.872 c -0.605,-1.012 -1.617,-1.821 -3.097,-1.821 -3.84,0 -7.746,4.242 -7.746,8.555 0,2.961 1.953,4.984 4.578,4.984 1.617,0 3.031,-0.875 4.246,-2.09 0.539,1.821 2.289,2.09 3.098,2.09 1.078,0 1.816,-0.609 2.355,-1.55 0.676,-1.211 1.078,-2.895 1.078,-3.032 0,-0.402 -0.402,-0.402 -0.472,-0.402 -0.469,0 -0.469,0.133 -0.672,0.941 -0.403,1.481 -0.942,3.235 -2.223,3.235 -0.742,0 -1.012,-0.676 -1.012,-1.485 0,-0.535 0.071,-0.804 0.203,-1.211 z m -6.398,16.164 c -0.203,0.875 -0.875,1.481 -1.547,2.02 -0.27,0.269 -1.485,1.215 -2.762,1.215 -1.144,0 -2.223,-0.809 -2.223,-2.899 0,-1.613 0.875,-4.914 1.618,-6.129 1.343,-2.421 2.894,-2.828 3.703,-2.828 2.086,0 2.691,2.289 2.691,2.629 0,0.067 -0.066,0.336 -0.066,0.403 z"
       style="fill:#000000;fill-opacity:1;fill-rule:nonzero;stroke:none"
       transform="scale(1.3333333)" /><path
       id="path103"
       d="m 215.219,28.969 c 0.246,-0.891 0.636,-1.602 2.453,-1.672 0.105,0 0.39,-0.035 0.39,-0.465 0,0 0,-0.246 -0.285,-0.246 -0.746,0 -1.562,0.07 -2.312,0.07 -0.746,0 -1.563,-0.07 -2.313,-0.07 -0.14,0 -0.39,0 -0.39,0.461 0,0.25 0.215,0.25 0.39,0.25 1.317,0.035 1.567,0.496 1.567,0.996 0,0.07 -0.071,0.426 -0.071,0.461 l -2.562,10.101 -5.016,-11.843 c -0.175,-0.391 -0.175,-0.426 -0.711,-0.426 h -3.058 c -0.426,0 -0.641,0 -0.641,0.461 0,0.25 0.215,0.25 0.641,0.25 0.105,0 1.531,0 1.531,0.211 l -3.023,12.168 c -0.25,0.922 -0.641,1.636 -2.457,1.707 -0.141,0 -0.391,0.035 -0.391,0.461 0,0.144 0.105,0.25 0.285,0.25 0.746,0 1.531,-0.071 2.277,-0.071 0.782,0 1.602,0.071 2.348,0.071 0.106,0 0.391,0 0.391,-0.461 0,-0.215 -0.215,-0.25 -0.461,-0.25 -1.317,-0.035 -1.496,-0.535 -1.496,-0.996 0,-0.145 0.035,-0.285 0.105,-0.535 l 2.988,-11.95 c 0.11,0.106 0.11,0.176 0.215,0.391 l 5.657,13.375 c 0.14,0.391 0.21,0.426 0.425,0.426 0.25,0 0.25,-0.071 0.356,-0.461 z"
       style="fill:#000000;fill-opacity:1;fill-rule:nonzero;stroke:none"
       transform="scale(1.3333333)" /><path
       id="path104"
       d="m 124.102,422.418 c 0,0 0,-0.277 -0.317,-0.277 -0.394,0 -2.762,0.238 -3.195,0.277 -0.195,0.039 -0.356,0.156 -0.356,0.473 0,0.316 0.239,0.316 0.594,0.316 1.223,0 1.262,0.156 1.262,0.434 l -0.078,0.511 -1.5,5.953 c -0.473,-0.945 -1.184,-1.613 -2.328,-1.613 -2.918,0 -6.032,3.703 -6.032,7.371 0,2.367 1.379,4.024 3.313,4.024 0.512,0 1.773,-0.117 3.273,-1.895 0.196,1.067 1.102,1.895 2.285,1.895 0.907,0 1.461,-0.59 1.895,-1.379 0.394,-0.906 0.75,-2.446 0.75,-2.485 0,-0.277 -0.238,-0.277 -0.316,-0.277 -0.239,0 -0.278,0.117 -0.356,0.473 -0.434,1.617 -0.867,3.117 -1.894,3.117 -0.707,0 -0.747,-0.672 -0.747,-1.145 0,-0.632 0.04,-0.789 0.118,-1.222 z m -5.207,14.195 c -0.157,0.473 -0.157,0.512 -0.512,0.946 -1.106,1.382 -2.129,1.777 -2.84,1.777 -1.262,0 -1.617,-1.383 -1.617,-2.367 0,-1.262 0.789,-4.336 1.379,-5.52 0.789,-1.461 1.894,-2.406 2.918,-2.406 1.617,0 1.972,2.051 1.972,2.207 0,0.16 -0.039,0.316 -0.078,0.434 z"
       style="fill:#000000;fill-opacity:1;fill-rule:nonzero;stroke:none"
       transform="scale(1.3333333)" /></g></svg>
